REM DIRINDEX 1\8,1\2\11,1\3\12,1\3\14,1\5\15,1\5\16,1\6\17,1\6\18,1\4\19,1\4\20,1\4\21,1\4\22,1\7\23,1\7\24,1\7\25,1\2\9\26,1\2\9\27,1\2\10\28,1\2\10\29,1\2\10\30,1\2\10\31,1\2\10\32,1\3\13\33,1\3\13\34,1\3\13\35
REM DIRNAME folder01,folder02,folder03,folder04,folder05,folder06,folder07,folder08,folder09,folder10,folder11,folder12,folder13,folder14,folder15,folder16,folder17,folder18,folder19,folder20,folder21,folder22,folder23,folder24,folder25,folder26,folder27,folder28,folder29,folder30,folder31,folder32,folder33,folder34,folder35
TITLE ""
FILE "2-41 041_UNIT4_WARM-UP-40.mp3" MP3
  TRACK 01 AUDIO
    TITLE "11:cjc123_4865"
    INDEX 01 00:00:00
  TRACK 02 AUDIO
    TITLE "0:"
    INDEX 01 00:02:65
  TRACK 03 AUDIO
    TITLE "26:cjc123_4866"
    INDEX 01 00:03:43
  TRACK 04 AUDIO
    TITLE "0:"
    INDEX 01 00:04:50
  TRACK 05 AUDIO
    TITLE "27:cjc123_4867"
    INDEX 01 00:05:01
  TRACK 06 AUDIO
    TITLE "0:"
    INDEX 01 00:06:26
  TRACK 07 AUDIO
    TITLE "26:cjc123_4868"
    INDEX 01 00:06:73
  TRACK 08 AUDIO
    TITLE "0:"
    INDEX 01 00:08:17
  TRACK 09 AUDIO
    TITLE "27:cjc123_4869"
    INDEX 01 00:08:42
  TRACK 10 AUDIO
    TITLE "0:"
    INDEX 01 00:10:00
  TRACK 11 AUDIO
    TITLE "26:cjc123_4870"
    INDEX 01 00:10:45
  TRACK 12 AUDIO
    TITLE "0:"
    INDEX 01 00:11:54
  TRACK 13 AUDIO
    TITLE "27:cjc123_4871"
    INDEX 01 00:12:05
  TRACK 14 AUDIO
    TITLE "0:"
    INDEX 01 00:13:55
  TRACK 15 AUDIO
    TITLE "26:cjc123_4872"
    INDEX 01 00:14:27
  TRACK 16 AUDIO
    TITLE "0:"
    INDEX 01 00:15:44
  TRACK 17 AUDIO
    TITLE "27:cjc123_4873"
    INDEX 01 00:15:66
  TRACK 18 AUDIO
    TITLE "0:"
    INDEX 01 00:17:14
  TRACK 19 AUDIO
    TITLE "26:cjc123_4874"
    INDEX 01 00:17:63
  TRACK 20 AUDIO
    TITLE "0:"
    INDEX 01 00:18:56
  TRACK 21 AUDIO
    TITLE "27:cjc123_4875"
    INDEX 01 00:19:13
  TRACK 22 AUDIO
    TITLE "0:"
    INDEX 01 00:20:36
  TRACK 23 AUDIO
    TITLE "26:cjc123_4876"
    INDEX 01 00:21:08
  TRACK 24 AUDIO
    TITLE "0:"
    INDEX 01 00:22:21
  TRACK 25 AUDIO
    TITLE "27:cjc123_4877"
    INDEX 01 00:22:44
  TRACK 26 AUDIO
    TITLE "0:"
    INDEX 01 00:23:65
  TRACK 27 AUDIO
    TITLE "26:cjc123_4878"
    INDEX 01 00:24:35
  TRACK 28 AUDIO
    TITLE "0:"
    INDEX 01 00:25:39
  TRACK 29 AUDIO
    TITLE "27:cjc123_4879"
    INDEX 01 00:25:56
  TRACK 30 AUDIO
    TITLE "0:"
    INDEX 01 00:27:18
  TRACK 31 AUDIO
    TITLE "26:cjc123_4880"
    INDEX 01 00:27:65
  TRACK 32 AUDIO
    TITLE "0:"
    INDEX 01 00:28:62
  TRACK 33 AUDIO
    TITLE "27:cjc123_4881"
    INDEX 01 00:29:07
  TRACK 34 AUDIO
    TITLE "0:"
    INDEX 01 00:30:12
  TRACK 35 AUDIO
    TITLE "26:cjc123_4882"
    INDEX 01 00:30:59
  TRACK 36 AUDIO
    TITLE "0:"
    INDEX 01 00:32:19
  TRACK 37 AUDIO
    TITLE "27:cjc123_4883"
    INDEX 01 00:32:41
  TRACK 38 AUDIO
    TITLE "0:"
    INDEX 01 00:33:73
  TRACK 39 AUDIO
    TITLE "26:cjc123_4884"
    INDEX 01 00:34:43
  TRACK 40 AUDIO
    TITLE "0:"
    INDEX 01 00:35:43
  TRACK 41 AUDIO
    TITLE "27:cjc123_4885"
    INDEX 01 00:36:07
  TRACK 42 AUDIO
    TITLE "0:"
    INDEX 01 00:37:20
  TRACK 43 AUDIO
    TITLE "26:cjc123_4886"
    INDEX 01 00:37:65
  TRACK 44 AUDIO
    TITLE "0:"
    INDEX 01 00:38:73
  TRACK 45 AUDIO
    TITLE "27:cjc123_4887"
    INDEX 01 00:39:17
  TRACK 46 AUDIO
    TITLE "0:"
    INDEX 01 00:40:48
  TRACK 47 AUDIO
    TITLE "26:cjc123_4888"
    INDEX 01 00:41:16
  TRACK 48 AUDIO
    TITLE "0:"
    INDEX 01 00:42:27
  TRACK 49 AUDIO
    TITLE "27:cjc123_4889"
    INDEX 01 00:42:53
  TRACK 50 AUDIO
    TITLE "0:"
    INDEX 01 00:43:50
  TRACK 51 AUDIO
    TITLE "26:cjc123_4890"
    INDEX 01 00:44:22
  TRACK 52 AUDIO
    TITLE "0:"
    INDEX 01 00:45:14
  TRACK 53 AUDIO
    TITLE "27:cjc123_4891"
    INDEX 01 00:45:43
  TRACK 54 AUDIO
    TITLE "0:"
    INDEX 01 00:46:70
  TRACK 55 AUDIO
    TITLE "26:cjc123_4892"
    INDEX 01 00:47:38
  TRACK 56 AUDIO
    TITLE "0:"
    INDEX 01 00:48:42
  TRACK 57 AUDIO
    TITLE "27:cjc123_4893"
    INDEX 01 00:49:10
  TRACK 58 AUDIO
    TITLE "0:"
    INDEX 01 00:50:23
  TRACK 59 AUDIO
    TITLE "26:cjc123_4894"
    INDEX 01 00:50:68
  TRACK 60 AUDIO
    TITLE "0:"
    INDEX 01 00:51:65
  TRACK 61 AUDIO
    TITLE "27:cjc123_4895"
    INDEX 01 00:52:14
  TRACK 62 AUDIO
    TITLE "0:"
    INDEX 01 00:53:13
  TRACK 63 AUDIO
    TITLE "26:cjc123_4896"
    INDEX 01 00:53:60
  TRACK 64 AUDIO
    TITLE "0:"
    INDEX 01 00:54:60
  TRACK 65 AUDIO
    TITLE "27:cjc123_4897"
    INDEX 01 00:55:28
  TRACK 66 AUDIO
    TITLE "0:"
    INDEX 01 00:56:18
  TRACK 67 AUDIO
    TITLE "26:cjc123_4898"
    INDEX 01 00:56:63
  TRACK 68 AUDIO
    TITLE "0:"
    INDEX 01 00:57:54
  TRACK 69 AUDIO
    TITLE "27:cjc123_4899"
    INDEX 01 00:58:09
  TRACK 70 AUDIO
    TITLE "0:"
    INDEX 01 00:59:08
  TRACK 71 AUDIO
    TITLE "26:cjc123_4900"
    INDEX 01 00:59:55
  TRACK 72 AUDIO
    TITLE "0:"
    INDEX 01 01:01:15
  TRACK 73 AUDIO
    TITLE "27:cjc123_4901"
    INDEX 01 01:01:36
  TRACK 74 AUDIO
    TITLE "0:"
    INDEX 01 01:02:46
  TRACK 75 AUDIO
    TITLE "26:cjc123_4902"
    INDEX 01 01:03:20
  TRACK 76 AUDIO
    TITLE "0:"
    INDEX 01 01:04:19
  TRACK 77 AUDIO
    TITLE "27:cjc123_4903"
    INDEX 01 01:04:56
  TRACK 78 AUDIO
    TITLE "0:"
    INDEX 01 01:05:60
  TRACK 79 AUDIO
    TITLE "26:cjc123_4904"
    INDEX 01 01:06:40
  TRACK 80 AUDIO
    TITLE "0:"
    INDEX 01 01:07:31
  TRACK 81 AUDIO
    TITLE "27:cjc123_4905"
    INDEX 01 01:07:45
  TRACK 82 AUDIO
    TITLE "0:"
    INDEX 01 01:08:29
  TRACK 83 AUDIO
    TITLE "26:cjc123_4906"
    INDEX 01 01:09:22
  TRACK 84 AUDIO
    TITLE "0:"
    INDEX 01 01:10:41
  TRACK 85 AUDIO
    TITLE "27:cjc123_4907"
    INDEX 01 01:10:63
  TRACK 86 AUDIO
    TITLE "0:"
    INDEX 01 01:11:56
  TRACK 87 AUDIO
    TITLE "26:cjc123_4908"
    INDEX 01 01:12:30
  TRACK 88 AUDIO
    TITLE "0:"
    INDEX 01 01:13:18
  TRACK 89 AUDIO
    TITLE "27:cjc123_4909"
    INDEX 01 01:13:57
  TRACK 90 AUDIO
    TITLE "0:"
    INDEX 01 01:14:74
  TRACK 91 AUDIO
    TITLE "26:cjc123_4910"
    INDEX 01 01:15:46
  TRACK 92 AUDIO
    TITLE "0:"
    INDEX 01 01:16:73
  TRACK 93 AUDIO
    TITLE "27:cjc123_4911"
    INDEX 01 01:17:22
  TRACK 94 AUDIO
    TITLE "0:"
    INDEX 01 01:18:19
  TRACK 95 AUDIO
    TITLE "26:cjc123_4912"
    INDEX 01 01:18:68
  TRACK 96 AUDIO
    TITLE "0:"
    INDEX 01 01:20:06
  TRACK 97 AUDIO
    TITLE "27:cjc123_4913"
    INDEX 01 01:20:26
  TRACK 98 AUDIO
    TITLE "0:"
    INDEX 01 01:21:39
  TRACK 99 AUDIO
    TITLE "26:cjc123_4914"
    INDEX 01 01:22:15
  TRACK 100 AUDIO
    TITLE "0:"
    INDEX 01 01:23:11
  TRACK 101 AUDIO
    TITLE "27:cjc123_4915"
    INDEX 01 01:23:36
  TRACK 102 AUDIO
    TITLE "0:"
    INDEX 01 01:24:49
  TRACK 103 AUDIO
    TITLE "26:cjc123_4916"
    INDEX 01 01:25:23
  TRACK 104 AUDIO
    TITLE "0:"
    INDEX 01 01:26:56
  TRACK 105 AUDIO
    TITLE "27:cjc123_4917"
    INDEX 01 01:27:04
  TRACK 106 AUDIO
    TITLE "0:"
    INDEX 01 01:28:00
  TRACK 107 AUDIO
    TITLE "26:cjc123_4918"
    INDEX 01 01:28:59
  TRACK 108 AUDIO
    TITLE "0:"
    INDEX 01 01:29:50
  TRACK 109 AUDIO
    TITLE "27:cjc123_4919"
    INDEX 01 01:30:07
  TRACK 110 AUDIO
    TITLE "0:"
    INDEX 01 01:31:12
  TRACK 111 AUDIO
    TITLE "26:cjc123_4920"
    INDEX 01 01:31:57
  TRACK 112 AUDIO
    TITLE "0:"
    INDEX 01 01:32:72
  TRACK 113 AUDIO
    TITLE "27:cjc123_4921"
    INDEX 01 01:33:23
  TRACK 114 AUDIO
    TITLE "0:"
    INDEX 01 01:34:20
  TRACK 115 AUDIO
    TITLE "26:cjc123_4922"
    INDEX 01 01:35:02
  TRACK 116 AUDIO
    TITLE "0:"
    INDEX 01 01:35:51
  TRACK 117 AUDIO
    TITLE "27:cjc123_4923"
    INDEX 01 01:36:15
  TRACK 118 AUDIO
    TITLE "0:"
    INDEX 01 01:37:15
  TRACK 119 AUDIO
    TITLE "26:cjc123_4924"
    INDEX 01 01:37:60
  TRACK 120 AUDIO
    TITLE "0:"
    INDEX 01 01:38:67
  TRACK 121 AUDIO
    TITLE "27:cjc123_4925"
    INDEX 01 01:39:10
  TRACK 122 AUDIO
    TITLE "0:"
    INDEX 01 01:40:17
  TRACK 123 AUDIO
    TITLE "26:cjc123_4926"
    INDEX 01 01:40:62
  TRACK 124 AUDIO
    TITLE "0:"
    INDEX 01 01:41:61
  TRACK 125 AUDIO
    TITLE "27:cjc123_4927"
    INDEX 01 01:42:22
  TRACK 126 AUDIO
    TITLE "0:"
    INDEX 01 01:43:31
  TRACK 127 AUDIO
    TITLE "26:cjc123_4928"
    INDEX 01 01:44:05
  TRACK 128 AUDIO
    TITLE "0:"
    INDEX 01 01:45:08
  TRACK 129 AUDIO
    TITLE "27:cjc123_4929"
    INDEX 01 01:45:22
  TRACK 130 AUDIO
    TITLE "0:"
    INDEX 01 01:46:35
  TRACK 131 AUDIO
    TITLE "26:cjc123_4930"
    INDEX 01 01:47:11
  TRACK 132 AUDIO
    TITLE "0:"
    INDEX 01 01:48:11
  TRACK 133 AUDIO
    TITLE "27:cjc123_4931"
    INDEX 01 01:48:32
  TRACK 134 AUDIO
    TITLE "0:"
    INDEX 01 01:49:45
  TRACK 135 AUDIO
    TITLE "26:cjc123_4932"
    INDEX 01 01:50:17
  TRACK 136 AUDIO
    TITLE "0:"
    INDEX 01 01:51:15
  TRACK 137 AUDIO
    TITLE "27:cjc123_4933"
    INDEX 01 01:51:38
  TRACK 138 AUDIO
    TITLE "0:"
    INDEX 01 01:52:51
  TRACK 139 AUDIO
    TITLE "26:cjc123_4934"
    INDEX 01 01:53:27
  TRACK 140 AUDIO
    TITLE "0:"
    INDEX 01 01:54:33
  TRACK 141 AUDIO
    TITLE "27:cjc123_4935"
    INDEX 01 01:54:48
  TRACK 142 AUDIO
    TITLE "0:"
    INDEX 01 01:55:58
  TRACK 143 AUDIO
    TITLE "26:cjc123_4936"
    INDEX 01 01:56:34
  TRACK 144 AUDIO
    TITLE "0:"
    INDEX 01 01:57:35
  TRACK 145 AUDIO
    TITLE "27:cjc123_4937"
    INDEX 01 01:57:53
  TRACK 146 AUDIO
    TITLE "0:"
    INDEX 01 01:58:68
  TRACK 147 AUDIO
    TITLE "26:cjc123_4938"
    INDEX 01 01:59:38
  TRACK 148 AUDIO
    TITLE "0:"
    INDEX 01 02:00:49
  TRACK 149 AUDIO
    TITLE "27:cjc123_4939"
    INDEX 01 02:00:67
  TRACK 150 AUDIO
    TITLE "0:"
    INDEX 01 02:01:70
  TRACK 151 AUDIO
    TITLE "26:cjc123_4940"
    INDEX 01 02:02:38
  TRACK 152 AUDIO
    TITLE "0:"
    INDEX 01 02:03:47
  TRACK 153 AUDIO
    TITLE "27:cjc123_4941"
    INDEX 01 02:03:63
  TRACK 154 AUDIO
    TITLE "0:"
    INDEX 01 02:04:59
  TRACK 155 AUDIO
    TITLE "26:cjc123_4942"
    INDEX 01 02:05:33
  TRACK 156 AUDIO
    TITLE "0:"
    INDEX 01 02:06:40
  TRACK 157 AUDIO
    TITLE "27:cjc123_4943"
    INDEX 01 02:06:63
  TRACK 158 AUDIO
    TITLE "0:"
    INDEX 01 02:07:63
  TRACK 159 AUDIO
    TITLE "26:cjc123_4944"
    INDEX 01 02:08:52
  TRACK 160 AUDIO
    TITLE "0:"
    INDEX 01 02:09:62
  TRACK 161 AUDIO
    TITLE "27:cjc123_4945"
    INDEX 01 02:10:10
  TRACK 162 AUDIO
    TITLE "0:"
    INDEX 01 02:11:39
